<svg width="30" height="36" viewBox="0 0 30 36" fill="none" xmlns="http://www.w3.org/2000/svg">
<path d="M4.28571 2.25C4.28571 1.00547 3.32812 0 2.14286 0C0.957589 0 0 1.00547 0 2.25V4.5V25.875V33.75C0 34.9945 0.957589 36 2.14286 36C3.32812 36 4.28571 34.9945 4.28571 33.75V24.75L8.59152 23.618C11.3437 22.8937 14.2567 23.2312 16.7946 24.5602C19.7545 26.1141 23.1897 26.3039 26.2835 25.0805L28.6071 24.1664C29.4442 23.8359 30 22.9992 30 22.057V4.64062C30 3.02344 28.3795 1.96875 27 2.69297L26.3571 3.03047C23.2567 4.66172 19.6071 4.66172 16.5067 3.03047C14.1563 1.79297 11.4576 1.48359 8.90625 2.15156L4.28571 3.375V2.25Z" fill="black"/>
</svg>
