<svg width="80" height="80" viewBox="0 0 80 80" fill="none" xmlns="http://www.w3.org/2000/svg">
<path d="M13.3333 63.3334V56.6667H20V33.3334C20 28.7223 21.3889 24.639 24.1666 21.0834C26.9444 17.4723 30.5555 15.1112 35 14.0001V11.6667C35 10.2779 35.4722 9.11119 36.4166 8.16674C37.4166 7.16675 38.6111 6.66675 40 6.66675C41.3889 6.66675 42.5555 7.16675 43.5 8.16674C44.5 9.11119 45 10.2779 45 11.6667V14.0001C49.4444 15.1112 53.0555 17.4723 55.8333 21.0834C58.6111 24.639 60 28.7223 60 33.3334V56.6667H66.6666V63.3334H13.3333ZM40 73.3334C38.1666 73.3334 36.5833 72.6945 35.25 71.4167C33.9722 70.0834 33.3333 68.5001 33.3333 66.6667H46.6666C46.6666 68.5001 46 70.0834 44.6666 71.4167C43.3889 72.6945 41.8333 73.3334 40 73.3334ZM26.6666 56.6667H53.3333V33.3334C53.3333 29.6667 52.0278 26.5279 49.4166 23.9167C46.8055 21.3056 43.6666 20.0001 40 20.0001C36.3333 20.0001 33.1944 21.3056 30.5833 23.9167C27.9722 26.5279 26.6666 29.6667 26.6666 33.3334V56.6667Z" fill="white"/>
</svg>
