<svg width="80" height="80" viewBox="0 0 80 80" fill="none" xmlns="http://www.w3.org/2000/svg">
<path d="M65.3333 70L44.3333 49C42.6667 50.3333 40.75 51.3889 38.5833 52.1667C36.4167 52.9444 34.1111 53.3333 31.6667 53.3333C25.6111 53.3333 20.4861 51.2361 16.2917 47.0417C12.0972 42.8472 10 37.7222 10 31.6667C10 25.6111 12.0972 20.4861 16.2917 16.2917C20.4861 12.0972 25.6111 10 31.6667 10C37.7222 10 42.8472 12.0972 47.0417 16.2917C51.2361 20.4861 53.3333 25.6111 53.3333 31.6667C53.3333 34.1111 52.9444 36.4167 52.1667 38.5833C51.3889 40.75 50.3333 42.6667 49 44.3333L70 65.3333L65.3333 70ZM31.6667 46.6667C35.8333 46.6667 39.375 45.2083 42.2917 42.2917C45.2083 39.375 46.6667 35.8333 46.6667 31.6667C46.6667 27.5 45.2083 23.9583 42.2917 21.0417C39.375 18.125 35.8333 16.6667 31.6667 16.6667C27.5 16.6667 23.9583 18.125 21.0417 21.0417C18.125 23.9583 16.6667 27.5 16.6667 31.6667C16.6667 35.8333 18.125 39.375 21.0417 42.2917C23.9583 45.2083 27.5 46.6667 31.6667 46.6667Z" fill="white"/>
</svg>
